<svg width="36" height="36" viewBox="0 0 36 36" fill="none" xmlns="http://www.w3.org/2000/svg">
<path d="M21.644 13.2364C23.023 13.2364 24.1409 12.1185 24.1409 10.7394C24.1409 9.36037 23.023 8.24243 21.644 8.24243C20.2649 8.24243 19.147 9.36037 19.147 10.7394C19.147 12.1185 20.2649 13.2364 21.644 13.2364Z" stroke="#6426E5" stroke-width="2.38636" stroke-linecap="round" stroke-linejoin="round"/>
<path d="M11.6562 25.7213C12.3457 25.7213 12.9047 25.1624 12.9047 24.4729C12.9047 23.7833 12.3457 23.2244 11.6562 23.2244C10.9667 23.2244 10.4077 23.7833 10.4077 24.4729C10.4077 25.1624 10.9667 25.7213 11.6562 25.7213Z" stroke="#6426E5" stroke-width="2.38636" stroke-linecap="round" stroke-linejoin="round"/>
<path d="M11.6562 16.9819C13.0352 16.9819 14.1531 15.8639 14.1531 14.4849C14.1531 13.1059 13.0352 11.9879 11.6562 11.9879C10.2771 11.9879 9.15918 13.1059 9.15918 14.4849C9.15918 15.8639 10.2771 16.9819 11.6562 16.9819Z" stroke="#6426E5" stroke-width="2.38636" stroke-linecap="round" stroke-linejoin="round"/>
<path d="M24.1909 31.4145C24.1631 30.9301 23.9947 30.4644 23.7065 30.0742C23.4183 29.6839 23.0226 29.3861 22.5679 29.2171C21.4385 28.8459 20.4786 28.084 19.8607 27.0684C19.2428 26.0528 19.0075 24.85 19.1971 23.6764C19.3867 22.5028 19.9887 21.4354 20.8949 20.6659C21.8012 19.8965 22.9522 19.4756 24.141 19.4789H28.8103C29.6112 19.4811 30.4008 19.2907 31.1127 18.9237C31.8245 18.5567 32.4376 18.0239 32.9003 17.3703C33.363 16.7166 33.6617 15.9612 33.7713 15.1679C33.8808 14.3746 33.7979 13.5665 33.5296 12.8119C32.5365 10.0078 30.7917 7.53046 28.486 5.65071C26.1803 3.77096 23.4022 2.56108 20.4555 2.15325C17.5087 1.74542 14.5065 2.15532 11.7769 3.33819C9.04731 4.52105 6.69532 6.43136 4.97789 8.86041C3.26047 11.2895 2.24368 14.1438 2.03861 17.1116C1.83355 20.0794 2.44809 23.0465 3.81511 25.6886C5.18213 28.3308 7.24903 30.5464 9.78999 32.0935C12.331 33.6405 15.2482 34.4595 18.2231 34.4608C19.6922 34.4649 21.1547 34.2632 22.5679 33.8615C23.0869 33.7161 23.5364 33.3889 23.8343 32.9397C24.1322 32.4905 24.2588 31.9492 24.1909 31.4145Z" stroke="#6426E5" stroke-width="2.38636" stroke-linecap="round" stroke-linejoin="round"/>
</svg>
