<svg width="34" height="34" viewBox="0 0 34 34" fill="none" xmlns="http://www.w3.org/2000/svg">
<path d="M31.7693 15.7693H21.9232C21.2434 15.7693 20.6924 16.3203 20.6924 17.0001V31.7693C20.6924 32.449 21.2434 33.0001 21.9232 33.0001H31.7693C32.449 33.0001 33.0001 32.449 33.0001 31.7693V17.0001C33.0001 16.3203 32.449 15.7693 31.7693 15.7693Z" stroke="#6426E5" stroke-width="1.92" stroke-linecap="round" stroke-linejoin="round"/>
<path d="M31.7693 1H21.9232C21.2434 1 20.6924 1.55103 20.6924 2.23077V7.17846C20.6924 7.8582 21.2434 8.40923 21.9232 8.40923H31.7693C32.449 8.40923 33.0001 7.8582 33.0001 7.17846V2.23077C33.0001 1.55103 32.449 1 31.7693 1Z" stroke="#6426E5" stroke-width="1.92" stroke-linecap="round" stroke-linejoin="round"/>
<path d="M12.0769 1H2.23077C1.55103 1 1 1.55103 1 2.23077V17C1 17.6797 1.55103 18.2308 2.23077 18.2308H12.0769C12.7567 18.2308 13.3077 17.6797 13.3077 17V2.23077C13.3077 1.55103 12.7567 1 12.0769 1Z" stroke="#6426E5" stroke-width="1.92" stroke-linecap="round" stroke-linejoin="round"/>
<path d="M12.0769 25.5908H2.23077C1.55103 25.5908 1 26.1419 1 26.8216V31.7693C1 32.449 1.55103 33.0001 2.23077 33.0001H12.0769C12.7567 33.0001 13.3077 32.449 13.3077 31.7693V26.8216C13.3077 26.1419 12.7567 25.5908 12.0769 25.5908Z" stroke="#6426E5" stroke-width="1.92" stroke-linecap="round" stroke-linejoin="round"/>
</svg>
