<svg width="39" height="39" viewBox="0 0 39 39" fill="none" xmlns="http://www.w3.org/2000/svg">
<mask id="path-1-inside-1_348_45" fill="white">
<path d="M18.4945 2.38623C11.8737 2.38623 6.11057 6.12658 3.20219 11.6054C3.19287 11.6241 3.18122 11.645 3.17423 11.666C1.91113 14.0664 1.19336 16.793 1.19336 19.6874C1.19336 27.1914 5.99638 33.5931 12.6894 35.9841C12.7127 35.9934 12.736 36.0004 12.7593 36.0074C14.5561 36.6413 16.4857 36.9885 18.4945 36.9885C28.033 36.9885 35.7956 29.2258 35.7956 19.6874C35.7956 16.1055 34.7003 12.7753 32.829 10.0114C32.7847 9.91819 32.7381 9.83196 32.6845 9.74807C32.5773 9.57795 32.4468 9.42414 32.307 9.28198C29.1446 5.09652 24.1318 2.38623 18.4945 2.38623ZM18.4945 3.57941C22.9573 3.57941 26.9982 5.40414 29.9206 8.34282C29.7085 8.34515 29.4941 8.35913 29.2774 8.39642C27.7556 8.65976 26.5997 9.77603 26.2572 11.3048C25.882 12.978 26.5485 14.2808 27.1917 15.5392C27.8535 16.8279 28.4804 18.0491 27.9957 19.6431L25.7934 25.2897L21.1512 13.1249H22.074C22.405 13.1249 22.6706 12.8592 22.6706 12.5283C22.6706 12.1974 22.405 11.9317 22.074 11.9317H13.7218C13.3908 11.9317 13.1252 12.1974 13.1252 12.5283C13.1252 12.8592 13.3908 13.1249 13.7218 13.1249H14.9033L17.052 18.6363L14.4582 25.2897L9.81596 13.1249H11.3354C11.6663 13.1249 11.932 12.8592 11.932 12.5283C11.932 12.1974 11.6663 11.9317 11.3354 11.9317H4.38372V11.9294C7.12897 6.95621 12.4237 3.57941 18.4945 3.57941ZM18.5015 5.36918C18.1706 5.36918 17.9049 5.63485 17.9049 5.96578V7.15896C17.9049 7.48988 18.1706 7.75555 18.5015 7.75555C18.8324 7.75555 19.0981 7.48988 19.0981 7.15896V5.96578C19.0981 5.63485 18.8324 5.36918 18.5015 5.36918ZM15.2645 5.81197C15.1876 5.80032 15.106 5.80498 15.0268 5.82595C14.7099 5.91218 14.5188 6.23844 14.605 6.55538L14.9149 7.70894C14.9849 7.97694 15.2272 8.15172 15.4906 8.15172C15.5418 8.15172 15.5931 8.14473 15.6444 8.13075C15.9636 8.04685 16.1524 7.71826 16.0685 7.40132L15.7562 6.24776C15.6933 6.00772 15.4952 5.84226 15.2645 5.81197ZM21.7408 5.81197C21.5101 5.84459 21.3097 6.00772 21.2444 6.24776L20.9368 7.40132C20.8506 7.71826 21.0417 8.04685 21.3586 8.13075C21.4099 8.14473 21.4611 8.15172 21.5147 8.15172C21.7757 8.15172 22.0181 7.97694 22.0904 7.70894L22.398 6.55538C22.4842 6.23844 22.2931 5.91218 21.9762 5.82595C21.8969 5.80498 21.8177 5.80032 21.7408 5.81197ZM12.0136 7.09371C11.9367 7.10303 11.8598 7.12633 11.7898 7.16828C11.5032 7.33374 11.4076 7.69729 11.5708 7.9816L12.1674 9.01398C12.2792 9.20741 12.4796 9.31228 12.6871 9.31228C12.7873 9.31228 12.8898 9.28897 12.983 9.23537C13.2697 9.06991 13.3675 8.70403 13.2021 8.41739L12.6055 7.38501C12.482 7.17294 12.2443 7.06341 12.0136 7.09371ZM24.9894 7.09371C24.7587 7.06341 24.521 7.17294 24.3975 7.38734L23.8009 8.41972C23.6378 8.70403 23.7333 9.06991 24.02 9.23537C24.1132 9.28897 24.2157 9.31461 24.3182 9.31461C24.5257 9.31461 24.7261 9.20741 24.8356 9.01631L25.4322 7.98393C25.5977 7.69729 25.4974 7.33374 25.2131 7.16828C25.1409 7.12633 25.0663 7.10303 24.9894 7.09371ZM30.0371 9.53367C30.5755 9.55464 31.0625 9.74341 31.4074 10.0697C31.5309 10.2328 31.6475 10.4006 31.7617 10.5684C32.6495 12.4723 30.9064 17.9862 29.5338 21.1439L24.4231 34.2572L19.3101 21.1439C19.3078 21.1416 19.3055 21.1392 19.3055 21.1346C19.2868 21.0903 19.2542 21.0507 19.2263 21.0111C19.2099 20.9901 19.196 20.9598 19.175 20.9388C19.154 20.9178 19.1214 20.9039 19.0957 20.8829C19.0585 20.8572 19.0235 20.8293 18.9816 20.813C18.9792 20.8106 18.9769 20.806 18.9722 20.806C18.9443 20.7943 18.914 20.7967 18.886 20.7897C18.8417 20.7803 18.7998 20.7664 18.7555 20.7664C18.7112 20.7664 18.6669 20.7803 18.625 20.7897C18.5947 20.7967 18.5667 20.7943 18.5388 20.806C18.5341 20.806 18.5318 20.8106 18.5295 20.813C18.4852 20.8293 18.4479 20.8596 18.4106 20.8875C18.385 20.9062 18.3547 20.9178 18.3337 20.9388C18.3127 20.9621 18.3011 20.9901 18.2824 21.0134C18.2545 21.053 18.2242 21.0903 18.2055 21.1322C18.2032 21.1369 18.2009 21.1392 18.1985 21.1439L13.0879 34.2572L4.84748 13.1249H8.53888L13.8966 27.1587C13.8989 27.1634 13.9035 27.1681 13.9059 27.1727C13.9129 27.1914 13.9222 27.2053 13.9315 27.2217C13.9571 27.2683 13.9851 27.3102 14.0201 27.3498C14.0364 27.3661 14.0527 27.3801 14.069 27.3964C14.1086 27.4291 14.1552 27.457 14.2042 27.4803C14.2158 27.4873 14.2228 27.4966 14.2368 27.5013C14.2438 27.5036 14.2484 27.5013 14.2554 27.506C14.3184 27.5269 14.3859 27.5433 14.4535 27.5433C14.5211 27.5433 14.5864 27.5269 14.6469 27.506C14.6539 27.5036 14.6586 27.506 14.6656 27.5013C14.6796 27.4966 14.6889 27.4873 14.7005 27.4803C14.7495 27.4594 14.7938 27.4314 14.8334 27.3964C14.852 27.3825 14.8683 27.3685 14.8847 27.3498C14.9196 27.3149 14.9476 27.2706 14.9732 27.224C14.9825 27.2077 14.9942 27.1937 15.0012 27.175C15.0035 27.1704 15.0058 27.1657 15.0082 27.1611L18.2358 18.8857C18.2381 18.8787 18.2405 18.874 18.2428 18.8671L18.2498 18.8531C18.2545 18.8368 18.2521 18.8181 18.2568 18.8018C18.2731 18.7459 18.2871 18.6923 18.2871 18.634C18.2871 18.5944 18.2754 18.5571 18.2661 18.5175C18.2591 18.4849 18.2615 18.4546 18.2498 18.4219L16.185 13.1249H19.8741L25.2341 27.1587C25.2364 27.1634 25.2388 27.1681 25.2411 27.1727C25.2481 27.1914 25.2597 27.2053 25.2691 27.2217C25.2924 27.2683 25.3203 27.3102 25.3553 27.3498C25.3716 27.3661 25.3879 27.3801 25.4042 27.3964C25.4462 27.4291 25.4905 27.457 25.5394 27.4803C25.551 27.4873 25.558 27.4966 25.572 27.5013C25.579 27.5036 25.5837 27.5036 25.5907 27.506C25.6536 27.5269 25.7212 27.5433 25.7911 27.5433C25.7934 27.5433 25.7934 27.5409 25.7957 27.5409C25.826 27.5409 25.8563 27.5293 25.8866 27.5246C25.9239 27.5176 25.9635 27.5176 26.0008 27.5036C26.0078 27.5013 26.0078 27.499 26.0148 27.4966C26.0567 27.4803 26.0917 27.45 26.129 27.4244C26.1546 27.4034 26.1873 27.3894 26.2106 27.3685C26.2315 27.3452 26.2455 27.3172 26.2618 27.2916C26.2898 27.252 26.3201 27.217 26.3364 27.175C26.3387 27.1704 26.3434 27.1681 26.3457 27.1634L29.1213 20.0346C29.7621 17.9349 28.9628 16.3712 28.2567 14.9939C27.6578 13.8263 27.1427 12.8172 27.4224 11.5658C27.6601 10.5008 28.4315 9.75506 29.4848 9.57329C29.6713 9.53833 29.8577 9.52668 30.0371 9.53367ZM33.1459 13.0083C34.0781 15.0451 34.6024 17.3057 34.6024 19.6874C34.6024 25.9446 31.0136 31.3768 25.7864 34.0428L30.6384 21.5983C30.925 20.9341 32.8127 16.4807 33.1459 13.0083ZM3.67061 13.3859L11.8434 34.3505C6.27137 31.8149 2.38654 26.1986 2.38654 19.6874C2.38654 17.4525 2.84331 15.3225 3.67061 13.3859ZM18.7555 23.0059L23.4373 35.0146C21.8783 35.5203 20.219 35.7953 18.4945 35.7953C16.9401 35.7953 15.4393 35.5693 14.0177 35.1591L18.7555 23.0059Z"/>
</mask>
<path d="M18.4945 2.38623C11.8737 2.38623 6.11057 6.12658 3.20219 11.6054C3.19287 11.6241 3.18122 11.645 3.17423 11.666C1.91113 14.0664 1.19336 16.793 1.19336 19.6874C1.19336 27.1914 5.99638 33.5931 12.6894 35.9841C12.7127 35.9934 12.736 36.0004 12.7593 36.0074C14.5561 36.6413 16.4857 36.9885 18.4945 36.9885C28.033 36.9885 35.7956 29.2258 35.7956 19.6874C35.7956 16.1055 34.7003 12.7753 32.829 10.0114C32.7847 9.91819 32.7381 9.83196 32.6845 9.74807C32.5773 9.57795 32.4468 9.42414 32.307 9.28198C29.1446 5.09652 24.1318 2.38623 18.4945 2.38623ZM18.4945 3.57941C22.9573 3.57941 26.9982 5.40414 29.9206 8.34282C29.7085 8.34515 29.4941 8.35913 29.2774 8.39642C27.7556 8.65976 26.5997 9.77603 26.2572 11.3048C25.882 12.978 26.5485 14.2808 27.1917 15.5392C27.8535 16.8279 28.4804 18.0491 27.9957 19.6431L25.7934 25.2897L21.1512 13.1249H22.074C22.405 13.1249 22.6706 12.8592 22.6706 12.5283C22.6706 12.1974 22.405 11.9317 22.074 11.9317H13.7218C13.3908 11.9317 13.1252 12.1974 13.1252 12.5283C13.1252 12.8592 13.3908 13.1249 13.7218 13.1249H14.9033L17.052 18.6363L14.4582 25.2897L9.81596 13.1249H11.3354C11.6663 13.1249 11.932 12.8592 11.932 12.5283C11.932 12.1974 11.6663 11.9317 11.3354 11.9317H4.38372V11.9294C7.12897 6.95621 12.4237 3.57941 18.4945 3.57941ZM18.5015 5.36918C18.1706 5.36918 17.9049 5.63485 17.9049 5.96578V7.15896C17.9049 7.48988 18.1706 7.75555 18.5015 7.75555C18.8324 7.75555 19.0981 7.48988 19.0981 7.15896V5.96578C19.0981 5.63485 18.8324 5.36918 18.5015 5.36918ZM15.2645 5.81197C15.1876 5.80032 15.106 5.80498 15.0268 5.82595C14.7099 5.91218 14.5188 6.23844 14.605 6.55538L14.9149 7.70894C14.9849 7.97694 15.2272 8.15172 15.4906 8.15172C15.5418 8.15172 15.5931 8.14473 15.6444 8.13075C15.9636 8.04685 16.1524 7.71826 16.0685 7.40132L15.7562 6.24776C15.6933 6.00772 15.4952 5.84226 15.2645 5.81197ZM21.7408 5.81197C21.5101 5.84459 21.3097 6.00772 21.2444 6.24776L20.9368 7.40132C20.8506 7.71826 21.0417 8.04685 21.3586 8.13075C21.4099 8.14473 21.4611 8.15172 21.5147 8.15172C21.7757 8.15172 22.0181 7.97694 22.0904 7.70894L22.398 6.55538C22.4842 6.23844 22.2931 5.91218 21.9762 5.82595C21.8969 5.80498 21.8177 5.80032 21.7408 5.81197ZM12.0136 7.09371C11.9367 7.10303 11.8598 7.12633 11.7898 7.16828C11.5032 7.33374 11.4076 7.69729 11.5708 7.9816L12.1674 9.01398C12.2792 9.20741 12.4796 9.31228 12.6871 9.31228C12.7873 9.31228 12.8898 9.28897 12.983 9.23537C13.2697 9.06991 13.3675 8.70403 13.2021 8.41739L12.6055 7.38501C12.482 7.17294 12.2443 7.06341 12.0136 7.09371ZM24.9894 7.09371C24.7587 7.06341 24.521 7.17294 24.3975 7.38734L23.8009 8.41972C23.6378 8.70403 23.7333 9.06991 24.02 9.23537C24.1132 9.28897 24.2157 9.31461 24.3182 9.31461C24.5257 9.31461 24.7261 9.20741 24.8356 9.01631L25.4322 7.98393C25.5977 7.69729 25.4974 7.33374 25.2131 7.16828C25.1409 7.12633 25.0663 7.10303 24.9894 7.09371ZM30.0371 9.53367C30.5755 9.55464 31.0625 9.74341 31.4074 10.0697C31.5309 10.2328 31.6475 10.4006 31.7617 10.5684C32.6495 12.4723 30.9064 17.9862 29.5338 21.1439L24.4231 34.2572L19.3101 21.1439C19.3078 21.1416 19.3055 21.1392 19.3055 21.1346C19.2868 21.0903 19.2542 21.0507 19.2263 21.0111C19.2099 20.9901 19.196 20.9598 19.175 20.9388C19.154 20.9178 19.1214 20.9039 19.0957 20.8829C19.0585 20.8572 19.0235 20.8293 18.9816 20.813C18.9792 20.8106 18.9769 20.806 18.9722 20.806C18.9443 20.7943 18.914 20.7967 18.886 20.7897C18.8417 20.7803 18.7998 20.7664 18.7555 20.7664C18.7112 20.7664 18.6669 20.7803 18.625 20.7897C18.5947 20.7967 18.5667 20.7943 18.5388 20.806C18.5341 20.806 18.5318 20.8106 18.5295 20.813C18.4852 20.8293 18.4479 20.8596 18.4106 20.8875C18.385 20.9062 18.3547 20.9178 18.3337 20.9388C18.3127 20.9621 18.3011 20.9901 18.2824 21.0134C18.2545 21.053 18.2242 21.0903 18.2055 21.1322C18.2032 21.1369 18.2009 21.1392 18.1985 21.1439L13.0879 34.2572L4.84748 13.1249H8.53888L13.8966 27.1587C13.8989 27.1634 13.9035 27.1681 13.9059 27.1727C13.9129 27.1914 13.9222 27.2053 13.9315 27.2217C13.9571 27.2683 13.9851 27.3102 14.0201 27.3498C14.0364 27.3661 14.0527 27.3801 14.069 27.3964C14.1086 27.4291 14.1552 27.457 14.2042 27.4803C14.2158 27.4873 14.2228 27.4966 14.2368 27.5013C14.2438 27.5036 14.2484 27.5013 14.2554 27.506C14.3184 27.5269 14.3859 27.5433 14.4535 27.5433C14.5211 27.5433 14.5864 27.5269 14.6469 27.506C14.6539 27.5036 14.6586 27.506 14.6656 27.5013C14.6796 27.4966 14.6889 27.4873 14.7005 27.4803C14.7495 27.4594 14.7938 27.4314 14.8334 27.3964C14.852 27.3825 14.8683 27.3685 14.8847 27.3498C14.9196 27.3149 14.9476 27.2706 14.9732 27.224C14.9825 27.2077 14.9942 27.1937 15.0012 27.175C15.0035 27.1704 15.0058 27.1657 15.0082 27.1611L18.2358 18.8857C18.2381 18.8787 18.2405 18.874 18.2428 18.8671L18.2498 18.8531C18.2545 18.8368 18.2521 18.8181 18.2568 18.8018C18.2731 18.7459 18.2871 18.6923 18.2871 18.634C18.2871 18.5944 18.2754 18.5571 18.2661 18.5175C18.2591 18.4849 18.2615 18.4546 18.2498 18.4219L16.185 13.1249H19.8741L25.2341 27.1587C25.2364 27.1634 25.2388 27.1681 25.2411 27.1727C25.2481 27.1914 25.2597 27.2053 25.2691 27.2217C25.2924 27.2683 25.3203 27.3102 25.3553 27.3498C25.3716 27.3661 25.3879 27.3801 25.4042 27.3964C25.4462 27.4291 25.4905 27.457 25.5394 27.4803C25.551 27.4873 25.558 27.4966 25.572 27.5013C25.579 27.5036 25.5837 27.5036 25.5907 27.506C25.6536 27.5269 25.7212 27.5433 25.7911 27.5433C25.7934 27.5433 25.7934 27.5409 25.7957 27.5409C25.826 27.5409 25.8563 27.5293 25.8866 27.5246C25.9239 27.5176 25.9635 27.5176 26.0008 27.5036C26.0078 27.5013 26.0078 27.499 26.0148 27.4966C26.0567 27.4803 26.0917 27.45 26.129 27.4244C26.1546 27.4034 26.1873 27.3894 26.2106 27.3685C26.2315 27.3452 26.2455 27.3172 26.2618 27.2916C26.2898 27.252 26.3201 27.217 26.3364 27.175C26.3387 27.1704 26.3434 27.1681 26.3457 27.1634L29.1213 20.0346C29.7621 17.9349 28.9628 16.3712 28.2567 14.9939C27.6578 13.8263 27.1427 12.8172 27.4224 11.5658C27.6601 10.5008 28.4315 9.75506 29.4848 9.57329C29.6713 9.53833 29.8577 9.52668 30.0371 9.53367ZM33.1459 13.0083C34.0781 15.0451 34.6024 17.3057 34.6024 19.6874C34.6024 25.9446 31.0136 31.3768 25.7864 34.0428L30.6384 21.5983C30.925 20.9341 32.8127 16.4807 33.1459 13.0083ZM3.67061 13.3859L11.8434 34.3505C6.27137 31.8149 2.38654 26.1986 2.38654 19.6874C2.38654 17.4525 2.84331 15.3225 3.67061 13.3859ZM18.7555 23.0059L23.4373 35.0146C21.8783 35.5203 20.219 35.7953 18.4945 35.7953C16.9401 35.7953 15.4393 35.5693 14.0177 35.1591L18.7555 23.0059Z" fill="#6426E5" stroke="#6426E5" stroke-width="1.90909" mask="url(#path-1-inside-1_348_45)"/>
</svg>
